<svg width="78" height="78" viewBox="0 0 78 78" fill="none" xmlns="http://www.w3.org/2000/svg">
<path d="M76.6054 0H1.39313C1.02373 0 0.669457 0.146743 0.408253 0.407947C0.147048 0.669152 0.000305176 1.02342 0.000305176 1.39282V61.2841H77.9982V1.39282C77.9982 1.02342 77.8515 0.669152 77.5903 0.407947C77.3291 0.146743 76.9748 0 76.6054 0ZM75.2126 55.7128C75.2126 56.4516 74.9191 57.1601 74.3967 57.6825C73.8743 58.205 73.1657 58.4984 72.427 58.4984H5.57159C4.83279 58.4984 4.12425 58.205 3.60184 57.6825C3.07943 57.1601 2.78595 56.4516 2.78595 55.7128V5.57128C2.78595 4.83248 3.07943 4.12394 3.60184 3.60153C4.12425 3.07913 4.83279 2.78564 5.57159 2.78564H72.427C73.1657 2.78564 73.8743 3.07913 74.3967 3.60153C74.9191 4.12394 75.2126 4.83248 75.2126 5.57128V55.7128Z" fill="#0E2038"/>
<path d="M76.6054 0H1.39313C1.02373 0 0.669457 0.146743 0.408253 0.407947C0.147048 0.669152 0.000305176 1.02342 0.000305176 1.39282V61.2841H77.9982V1.39282C77.9982 1.02342 77.8515 0.669152 77.5903 0.407947C77.3291 0.146743 76.9748 0 76.6054 0ZM75.2126 55.7128C75.2126 56.4516 74.9191 57.1601 74.3967 57.6825C73.8743 58.205 73.1657 58.4984 72.427 58.4984H5.57159C4.83279 58.4984 4.12425 58.205 3.60184 57.6825C3.07943 57.1601 2.78595 56.4516 2.78595 55.7128V5.57128C2.78595 4.83248 3.07943 4.12394 3.60184 3.60153C4.12425 3.07913 4.83279 2.78564 5.57159 2.78564H72.427C73.1657 2.78564 73.8743 3.07913 74.3967 3.60153C74.9191 4.12394 75.2126 4.83248 75.2126 5.57128V55.7128Z" fill="black" fill-opacity="0.2"/>
<path d="M0 65.4625C0 65.8319 0.146743 66.1861 0.407948 66.4473C0.669152 66.7085 1.02342 66.8553 1.39282 66.8553H76.6051C76.9745 66.8553 77.3288 66.7085 77.59 66.4473C77.8512 66.1861 77.9979 65.8319 77.9979 65.4625V64.0696H0V65.4625Z" fill="#0E2038"/>
<path d="M0 65.4625C0 65.8319 0.146743 66.1861 0.407948 66.4473C0.669152 66.7085 1.02342 66.8553 1.39282 66.8553H76.6051C76.9745 66.8553 77.3288 66.7085 77.59 66.4473C77.8512 66.1861 77.9979 65.8319 77.9979 65.4625V64.0696H0V65.4625Z" fill="black" fill-opacity="0.2"/>
<path d="M46.4326 69.6409H31.5656C31.0206 70.7117 30.2622 71.6597 29.3371 72.4265H48.6653C47.7386 71.6602 46.9788 70.7121 46.4326 69.6409Z" fill="#0E2038"/>
<path d="M46.4326 69.6409H31.5656C31.0206 70.7117 30.2622 71.6597 29.3371 72.4265H48.6653C47.7386 71.6602 46.9788 70.7121 46.4326 69.6409Z" fill="black" fill-opacity="0.2"/>
<path d="M66.8556 47.3558H15.3212C14.9518 47.3558 14.5976 47.2091 14.3363 46.9479C14.0751 46.6867 13.9284 46.3324 13.9284 45.963V11.1425H11.1428V50.1414H66.8556V47.3558Z" fill="#0E2038"/>
<path d="M66.8556 47.3558H15.3212C14.9518 47.3558 14.5976 47.2091 14.3363 46.9479C14.0751 46.6867 13.9284 46.3324 13.9284 45.963V11.1425H11.1428V50.1414H66.8556V47.3558Z" fill="black" fill-opacity="0.2"/>
<path d="M62.8596 35.4752C61.9445 28.6406 60.9069 20.8923 56.3314 20.8923C53.7756 20.8923 52.7018 23.639 51.2365 28.1601C49.8033 32.592 48.1765 37.6062 43.1777 37.6062C38.9811 37.6062 37.3013 34.0768 35.9517 31.241C34.5422 28.2743 33.5588 26.4636 31.2398 26.4636C29.8902 26.4636 27.3761 26.4636 24.6239 36.5797C23.9455 39.5358 22.5507 42.2799 20.5624 44.5703H64.6271C63.745 41.6029 63.1531 38.5569 62.8596 35.4752Z" fill="#0E2038"/>
<path d="M62.8596 35.4752C61.9445 28.6406 60.9069 20.8923 56.3314 20.8923C53.7756 20.8923 52.7018 23.639 51.2365 28.1601C49.8033 32.592 48.1765 37.6062 43.1777 37.6062C38.9811 37.6062 37.3013 34.0768 35.9517 31.241C34.5422 28.2743 33.5588 26.4636 31.2398 26.4636C29.8902 26.4636 27.3761 26.4636 24.6239 36.5797C23.9455 39.5358 22.5507 42.2799 20.5624 44.5703H64.6271C63.745 41.6029 63.1531 38.5569 62.8596 35.4752Z" fill="black" fill-opacity="0.2"/>
<path d="M5.57123 55.7126H72.4266V5.57111H5.57123V55.7126ZM8.35687 11.1424C8.35687 10.4036 8.65035 9.69505 9.17276 9.17264C9.69517 8.65023 10.4037 8.35675 11.1425 8.35675H13.9281C14.6669 8.35675 15.3755 8.65023 15.8979 9.17264C16.4203 9.69505 16.7138 10.4036 16.7138 11.1424V44.1146C18.1707 43.3569 20.4452 41.329 21.9355 35.8468C24.3186 27.0902 26.9273 23.6778 31.2395 23.6778C35.4347 23.6778 37.1144 27.2072 38.4655 30.043C39.8764 33.0097 40.8583 34.8203 43.1774 34.8203C45.9505 34.8203 47.0773 31.9804 48.5871 27.2991C49.9799 22.9883 51.5649 18.1065 56.3312 18.1065C63.344 18.1065 64.5488 27.1361 65.6199 35.0989C66.1269 38.8846 66.6575 42.7594 67.7495 44.7247C68.2998 44.9112 68.778 45.2651 69.1171 45.7369C69.4563 46.2086 69.6394 46.7747 69.6409 47.3557V50.1413C69.6409 50.8801 69.3475 51.5887 68.8251 52.1111C68.3026 52.6335 67.5941 52.927 66.8553 52.927H11.1425C10.4037 52.927 9.69517 52.6335 9.17276 52.1111C8.65035 51.5887 8.35687 50.8801 8.35687 50.1413V11.1424Z" fill="#0E2038"/>
<path d="M5.57123 55.7126H72.4266V5.57111H5.57123V55.7126ZM8.35687 11.1424C8.35687 10.4036 8.65035 9.69505 9.17276 9.17264C9.69517 8.65023 10.4037 8.35675 11.1425 8.35675H13.9281C14.6669 8.35675 15.3755 8.65023 15.8979 9.17264C16.4203 9.69505 16.7138 10.4036 16.7138 11.1424V44.1146C18.1707 43.3569 20.4452 41.329 21.9355 35.8468C24.3186 27.0902 26.9273 23.6778 31.2395 23.6778C35.4347 23.6778 37.1144 27.2072 38.4655 30.043C39.8764 33.0097 40.8583 34.8203 43.1774 34.8203C45.9505 34.8203 47.0773 31.9804 48.5871 27.2991C49.9799 22.9883 51.5649 18.1065 56.3312 18.1065C63.344 18.1065 64.5488 27.1361 65.6199 35.0989C66.1269 38.8846 66.6575 42.7594 67.7495 44.7247C68.2998 44.9112 68.778 45.2651 69.1171 45.7369C69.4563 46.2086 69.6394 46.7747 69.6409 47.3557V50.1413C69.6409 50.8801 69.3475 51.5887 68.8251 52.1111C68.3026 52.6335 67.5941 52.927 66.8553 52.927H11.1425C10.4037 52.927 9.69517 52.6335 9.17276 52.1111C8.65035 51.5887 8.35687 50.8801 8.35687 50.1413V11.1424Z" fill="black" fill-opacity="0.2"/>
<path d="M20.8925 77.998H57.1058C57.1039 77.2598 56.8099 76.5523 56.2879 76.0303C55.7658 75.5083 55.0584 75.2142 54.3201 75.2124H23.6781C22.9393 75.2124 22.2308 75.5059 21.7084 76.0283C21.1859 76.5507 20.8925 77.2592 20.8925 77.998Z" fill="#0E2038"/>
<path d="M20.8925 77.998H57.1058C57.1039 77.2598 56.8099 76.5523 56.2879 76.0303C55.7658 75.5083 55.0584 75.2142 54.3201 75.2124H23.6781C22.9393 75.2124 22.2308 75.5059 21.7084 76.0283C21.1859 76.5507 20.8925 77.2592 20.8925 77.998Z" fill="black" fill-opacity="0.2"/>
</svg>
