<svg width="60" height="60" viewBox="0 0 60 60" fill="none" xmlns="http://www.w3.org/2000/svg">
<path d="M48.2156 9.64316H47.1442C46.86 9.64316 46.5875 9.53028 46.3865 9.32934C46.1856 9.1284 46.0727 8.85587 46.0727 8.5717C46.0727 8.28753 45.9598 8.015 45.7589 7.81407C45.5579 7.61313 45.2854 7.50024 45.0012 7.50024C44.7171 7.50024 44.4445 7.61313 44.2436 7.81407C44.0427 8.015 43.9298 8.28753 43.9298 8.5717C43.9298 8.85587 43.8169 9.1284 43.616 9.32934C43.415 9.53028 43.1425 9.64316 42.8583 9.64316H41.7869V11.7861H48.2156V9.64316Z" fill="#FAFCFF"/>
<path d="M60.0017 4.28583C60.0017 3.14916 59.5501 2.05904 58.7464 1.25529C57.9426 0.451542 56.8525 0 55.7158 0H4.28583C3.14916 0 2.05904 0.451542 1.25529 1.25529C0.451542 2.05904 0 3.14916 0 4.28583V45.0013C0 46.1379 0.451542 47.228 1.25529 48.0318C2.05904 48.8355 3.14916 49.2871 4.28583 49.2871H7.50021C7.78438 49.2871 8.05691 49.4 8.25785 49.6009C8.45878 49.8018 8.57167 50.0744 8.57167 50.3585V58.1802C8.57046 58.4983 8.65374 58.8111 8.813 59.0865C8.97226 59.3619 9.20179 59.5901 9.47812 59.7477C9.75691 59.9114 10.0741 59.9985 10.3974 60C10.7206 60.0015 11.0386 59.9174 11.3189 59.7563L29.4715 49.4275C29.6327 49.3352 29.8152 49.2868 30.0008 49.2871H55.7158C56.8525 49.2871 57.9426 48.8355 58.7464 48.0318C59.5501 47.228 60.0017 46.1379 60.0017 45.0013V4.28583ZM22.5006 42.8583H4.28583C4.00167 42.8583 3.72914 42.7455 3.5282 42.5445C3.32726 42.3436 3.21438 42.071 3.21438 41.7869C3.21438 41.5027 3.32726 41.2302 3.5282 41.0292C3.72914 40.8283 4.00167 40.7154 4.28583 40.7154H22.5006C22.7848 40.7154 23.0573 40.8283 23.2583 41.0292C23.4592 41.2302 23.5721 41.5027 23.5721 41.7869C23.5721 42.071 23.4592 42.3436 23.2583 42.5445C23.0573 42.7455 22.7848 42.8583 22.5006 42.8583ZM3.21438 33.2152C3.21438 32.931 3.32726 32.6585 3.5282 32.4576C3.72914 32.2566 4.00167 32.1438 4.28583 32.1438H10.7146C10.9988 32.1438 11.2713 32.2566 11.4722 32.4576C11.6732 32.6585 11.786 32.931 11.786 33.2152C11.786 33.4994 11.6732 33.7719 11.4722 33.9728C11.2713 34.1738 10.9988 34.2867 10.7146 34.2867H4.28583C4.00167 34.2867 3.72914 34.1738 3.5282 33.9728C3.32726 33.7719 3.21438 33.4994 3.21438 33.2152ZM28.9294 34.2867H15.0004C14.7163 34.2867 14.4437 34.1738 14.2428 33.9728C14.0418 33.7719 13.929 33.4994 13.929 33.2152C13.929 32.931 14.0418 32.6585 14.2428 32.4576C14.4437 32.2566 14.7163 32.1438 15.0004 32.1438H28.9294C29.2136 32.1438 29.4861 32.2566 29.687 32.4576C29.888 32.6585 30.0008 32.931 30.0008 33.2152C30.0008 33.4994 29.888 33.7719 29.687 33.9728C29.4861 34.1738 29.2136 34.2867 28.9294 34.2867ZM28.9294 25.715H4.28583C4.00167 25.715 3.72914 25.6021 3.5282 25.4012C3.32726 25.2002 3.21438 24.9277 3.21438 24.6435C3.21438 24.3594 3.32726 24.0868 3.5282 23.8859C3.72914 23.685 4.00167 23.5721 4.28583 23.5721H28.9294C29.2136 23.5721 29.4861 23.685 29.687 23.8859C29.888 24.0868 30.0008 24.3594 30.0008 24.6435C30.0008 24.9277 29.888 25.2002 29.687 25.4012C29.4861 25.6021 29.2136 25.715 28.9294 25.715ZM28.9294 17.1433H4.28583C4.00167 17.1433 3.72914 17.0305 3.5282 16.8295C3.32726 16.6286 3.21438 16.356 3.21438 16.0719C3.21438 15.7877 3.32726 15.5152 3.5282 15.3142C3.72914 15.1133 4.00167 15.0004 4.28583 15.0004H28.9294C29.2136 15.0004 29.4861 15.1133 29.687 15.3142C29.888 15.5152 30.0008 15.7877 30.0008 16.0719C30.0008 16.356 29.888 16.6286 29.687 16.8295C29.4861 17.0305 29.2136 17.1433 28.9294 17.1433ZM30.0008 8.57167H4.28583C4.00167 8.57167 3.72914 8.45878 3.5282 8.25784C3.32726 8.05691 3.21438 7.78438 3.21438 7.50021C3.21438 7.21604 3.32726 6.94351 3.5282 6.74257C3.72914 6.54164 4.00167 6.42875 4.28583 6.42875H30.0008C30.285 6.42875 30.5575 6.54164 30.7585 6.74257C30.9594 6.94351 31.0723 7.21604 31.0723 7.50021C31.0723 7.78438 30.9594 8.05691 30.7585 8.25784C30.5575 8.45878 30.285 8.57167 30.0008 8.57167ZM57.8588 39.644C57.8588 40.7806 57.4072 41.8708 56.6035 42.6745C55.7997 43.4783 54.7096 43.9298 53.5729 43.9298H36.4296C35.2929 43.9298 34.2028 43.4783 33.399 42.6745C32.5953 41.8708 32.1438 40.7806 32.1438 39.644V13.929C32.1438 12.7923 32.5953 11.7022 33.399 10.8984C34.2028 10.0947 35.2929 9.64313 36.4296 9.64313H39.644C39.644 9.07479 39.8697 8.52973 40.2716 8.12786C40.6735 7.72598 41.2185 7.50021 41.7869 7.50021H41.9701C42.1914 6.87309 42.6018 6.33005 43.1447 5.94594C43.6876 5.56182 44.3362 5.35555 45.0013 5.35555C45.6663 5.35555 46.3149 5.56182 46.8578 5.94594C47.4007 6.33005 47.8111 6.87309 48.0324 7.50021H48.2156C48.784 7.50021 49.329 7.72598 49.7309 8.12786C50.1328 8.52973 50.3586 9.07479 50.3586 9.64313H53.5729C54.7096 9.64313 55.7997 10.0947 56.6035 10.8984C57.4072 11.7022 57.8588 12.7923 57.8588 13.929V39.644Z" fill="#FAFCFF"/>
<path d="M53.5731 11.7861H50.3587C50.3587 12.3545 50.1329 12.8995 49.731 13.3014C49.3292 13.7033 48.7841 13.929 48.2158 13.929H41.787C41.2187 13.929 40.6736 13.7033 40.2717 13.3014C39.8699 12.8995 39.6441 12.3545 39.6441 11.7861H36.4297C35.8614 11.7861 35.3163 12.0119 34.9144 12.4138C34.5126 12.8157 34.2868 13.3607 34.2868 13.929V39.6441C34.2868 40.2124 34.5126 40.7575 34.9144 41.1593C35.3163 41.5612 35.8614 41.787 36.4297 41.787H53.5731C54.1414 41.787 54.6865 41.5612 55.0883 41.1593C55.4902 40.7575 55.716 40.2124 55.716 39.6441V13.929C55.716 13.3607 55.4902 12.8157 55.0883 12.4138C54.6865 12.0119 54.1414 11.7861 53.5731 11.7861ZM42.6442 33.8582L39.4298 38.144C39.338 38.2673 39.2207 38.3694 39.0859 38.4433C38.9511 38.5173 38.802 38.5614 38.6487 38.5726H38.5726C38.2885 38.5725 38.016 38.4596 37.8151 38.2587L36.7437 37.1872C36.5485 36.9851 36.4405 36.7145 36.4429 36.4335C36.4454 36.1526 36.5581 35.8839 36.7567 35.6852C36.9554 35.4866 37.2241 35.3739 37.505 35.3714C37.786 35.369 38.0566 35.477 38.2587 35.6722L38.4569 35.8704L40.9298 32.5724C41.1003 32.3451 41.3542 32.1948 41.6355 32.1546C41.9168 32.1144 42.2026 32.1876 42.4299 32.3581C42.6572 32.5286 42.8075 32.7825 42.8477 33.0638C42.8879 33.3451 42.8147 33.6308 42.6442 33.8582ZM42.6442 26.358L39.4298 30.6438C39.338 30.7671 39.2207 30.8692 39.0859 30.9431C38.9511 31.0171 38.802 31.0612 38.6487 31.0724H38.5726C38.2885 31.0723 38.016 30.9594 37.8151 30.7585L36.7437 29.687C36.5485 29.4849 36.4405 29.2143 36.4429 28.9333C36.4454 28.6524 36.5581 28.3837 36.7567 28.185C36.9554 27.9863 37.2241 27.8737 37.505 27.8712C37.786 27.8688 38.0566 27.9768 38.2587 28.1719L38.4569 28.3702L40.9298 25.0722C41.0143 24.9597 41.12 24.8648 41.2411 24.7931C41.3622 24.7214 41.4962 24.6743 41.6355 24.6544C41.7748 24.6345 41.9166 24.6422 42.0529 24.6772C42.1892 24.7121 42.3173 24.7735 42.4299 24.8579C42.5425 24.9424 42.6373 25.0481 42.709 25.1692C42.7807 25.2903 42.8278 25.4243 42.8477 25.5636C42.8676 25.7029 42.8599 25.8447 42.8249 25.981C42.79 26.1173 42.7286 26.2454 42.6442 26.358ZM42.6442 18.8578L39.4298 23.1436C39.338 23.2669 39.2207 23.369 39.0859 23.4429C38.9511 23.5169 38.802 23.561 38.6487 23.5722H38.5726C38.2885 23.5721 38.016 23.4592 37.8151 23.2582L36.7437 22.1868C36.5485 21.9847 36.4405 21.714 36.4429 21.4331C36.4454 21.1522 36.5581 20.8834 36.7567 20.6848C36.9554 20.4861 37.2241 20.3734 37.505 20.371C37.786 20.3686 38.0566 20.4766 38.2587 20.6717L38.4569 20.87L40.9298 17.572C41.0143 17.4594 41.12 17.3646 41.2411 17.2929C41.3622 17.2212 41.4962 17.1741 41.6355 17.1542C41.7748 17.1343 41.9166 17.142 42.0529 17.1769C42.1892 17.2119 42.3173 17.2733 42.4299 17.3577C42.5425 17.4421 42.6373 17.5479 42.709 17.669C42.7807 17.7901 42.8278 17.9241 42.8477 18.0634C42.8676 18.2026 42.8599 18.3445 42.8249 18.4808C42.79 18.6171 42.7286 18.7452 42.6442 18.8578ZM52.5016 36.4297H46.0728C45.7887 36.4297 45.5161 36.3168 45.3152 36.1159C45.1143 35.9149 45.0014 35.6424 45.0014 35.3582C45.0014 35.0741 45.1143 34.8015 45.3152 34.6006C45.5161 34.3996 45.7887 34.2868 46.0728 34.2868H52.5016C52.7858 34.2868 53.0583 34.3996 53.2592 34.6006C53.4602 34.8015 53.5731 35.0741 53.5731 35.3582C53.5731 35.6424 53.4602 35.9149 53.2592 36.1159C53.0583 36.3168 52.7858 36.4297 52.5016 36.4297ZM52.5016 28.9295H46.0728C45.7887 28.9295 45.5161 28.8166 45.3152 28.6156C45.1143 28.4147 45.0014 28.1422 45.0014 27.858C45.0014 27.5738 45.1143 27.3013 45.3152 27.1004C45.5161 26.8994 45.7887 26.7866 46.0728 26.7866H52.5016C52.7858 26.7866 53.0583 26.8994 53.2592 27.1004C53.4602 27.3013 53.5731 27.5738 53.5731 27.858C53.5731 28.1422 53.4602 28.4147 53.2592 28.6156C53.0583 28.8166 52.7858 28.9295 52.5016 28.9295ZM52.5016 21.4293H46.0728C45.7887 21.4293 45.5161 21.3164 45.3152 21.1154C45.1143 20.9145 45.0014 20.642 45.0014 20.3578C45.0014 20.0736 45.1143 19.8011 45.3152 19.6002C45.5161 19.3992 45.7887 19.2863 46.0728 19.2863H52.5016C52.7858 19.2863 53.0583 19.3992 53.2592 19.6002C53.4602 19.8011 53.5731 20.0736 53.5731 20.3578C53.5731 20.642 53.4602 20.9145 53.2592 21.1154C53.0583 21.3164 52.7858 21.4293 52.5016 21.4293Z" fill="#FAFCFF"/>
</svg>
