<svg width="74" height="74" viewBox="0 0 74 74" fill="none" xmlns="http://www.w3.org/2000/svg">
<path d="M59.2615 12.1071H57.9446C57.5953 12.1071 57.2604 11.9684 57.0134 11.7214C56.7664 11.4744 56.6277 11.1395 56.6277 10.7902C56.6277 10.4409 56.4889 10.106 56.242 9.85898C55.995 9.61201 55.66 9.47327 55.3107 9.47327C54.9615 9.47327 54.6265 9.61201 54.3795 9.85898C54.1326 10.106 53.9938 10.4409 53.9938 10.7902C53.9938 11.1395 53.8551 11.4744 53.6081 11.7214C53.3611 11.9684 53.0262 12.1071 52.6769 12.1071H51.36V14.7409H59.2615V12.1071Z" fill="#0E2038"/>
<path d="M59.2615 12.1071H57.9446C57.5953 12.1071 57.2604 11.9684 57.0134 11.7214C56.7664 11.4744 56.6277 11.1395 56.6277 10.7902C56.6277 10.4409 56.4889 10.106 56.242 9.85898C55.995 9.61201 55.66 9.47327 55.3107 9.47327C54.9615 9.47327 54.6265 9.61201 54.3795 9.85898C54.1326 10.106 53.9938 10.4409 53.9938 10.7902C53.9938 11.1395 53.8551 11.4744 53.6081 11.7214C53.3611 11.9684 53.0262 12.1071 52.6769 12.1071H51.36V14.7409H59.2615V12.1071Z" fill="black" fill-opacity="0.2"/>
<path d="M73.7475 5.5222C73.7475 4.12512 73.1926 2.78527 72.2047 1.79738C71.2168 0.809503 69.8769 0.254517 68.4799 0.254517H5.26768C3.87061 0.254517 2.53075 0.809503 1.54287 1.79738C0.554986 2.78527 0 4.12512 0 5.5222V55.5652C0 56.9622 0.554986 58.3021 1.54287 59.29C2.53075 60.2779 3.87061 60.8329 5.26768 60.8329H9.21844C9.56771 60.8329 9.90268 60.9716 10.1496 61.2186C10.3966 61.4655 10.5354 61.8005 10.5354 62.1498V71.7633C10.5339 72.1543 10.6362 72.5387 10.832 72.8772C11.0277 73.2157 11.3098 73.4962 11.6495 73.6899C11.9921 73.8912 12.3819 73.9981 12.7793 74C13.1767 74.0018 13.5674 73.8985 13.9119 73.7005L36.2232 61.0054C36.4213 60.892 36.6456 60.8326 36.8738 60.8329H68.4799C69.8769 60.8329 71.2168 60.2779 72.2047 59.29C73.1926 58.3021 73.7475 56.9622 73.7475 55.5652V5.5222ZM27.6553 52.9313H5.26768C4.91841 52.9313 4.58345 52.7926 4.33648 52.5456C4.08951 52.2986 3.95076 51.9637 3.95076 51.6144C3.95076 51.2651 4.08951 50.9302 4.33648 50.6832C4.58345 50.4362 4.91841 50.2975 5.26768 50.2975H27.6553C28.0046 50.2975 28.3396 50.4362 28.5865 50.6832C28.8335 50.9302 28.9722 51.2651 28.9722 51.6144C28.9722 51.9637 28.8335 52.2986 28.5865 52.5456C28.3396 52.7926 28.0046 52.9313 27.6553 52.9313ZM3.95076 41.079C3.95076 40.7298 4.08951 40.3948 4.33648 40.1478C4.58345 39.9009 4.91841 39.7621 5.26768 39.7621H13.1692C13.5185 39.7621 13.8534 39.9009 14.1004 40.1478C14.3474 40.3948 14.4861 40.7298 14.4861 41.079C14.4861 41.4283 14.3474 41.7633 14.1004 42.0103C13.8534 42.2572 13.5185 42.396 13.1692 42.396H5.26768C4.91841 42.396 4.58345 42.2572 4.33648 42.0103C4.08951 41.7633 3.95076 41.4283 3.95076 41.079ZM35.5569 42.396H18.4369C18.0876 42.396 17.7527 42.2572 17.5057 42.0103C17.2587 41.7633 17.12 41.4283 17.12 41.079C17.12 40.7298 17.2587 40.3948 17.5057 40.1478C17.7527 39.9009 18.0876 39.7621 18.4369 39.7621H35.5569C35.9061 39.7621 36.2411 39.9009 36.4881 40.1478C36.735 40.3948 36.8738 40.7298 36.8738 41.079C36.8738 41.4283 36.735 41.7633 36.4881 42.0103C36.2411 42.2572 35.9061 42.396 35.5569 42.396ZM35.5569 31.8606H5.26768C4.91841 31.8606 4.58345 31.7219 4.33648 31.4749C4.08951 31.2279 3.95076 30.893 3.95076 30.5437C3.95076 30.1944 4.08951 29.8595 4.33648 29.6125C4.58345 29.3655 4.91841 29.2268 5.26768 29.2268H35.5569C35.9061 29.2268 36.2411 29.3655 36.4881 29.6125C36.735 29.8595 36.8738 30.1944 36.8738 30.5437C36.8738 30.893 36.735 31.2279 36.4881 31.4749C36.2411 31.7219 35.9061 31.8606 35.5569 31.8606ZM35.5569 21.3252H5.26768C4.91841 21.3252 4.58345 21.1865 4.33648 20.9395C4.08951 20.6926 3.95076 20.3576 3.95076 20.0083C3.95076 19.6591 4.08951 19.3241 4.33648 19.0771C4.58345 18.8301 4.91841 18.6914 5.26768 18.6914H35.5569C35.9061 18.6914 36.2411 18.8301 36.4881 19.0771C36.735 19.3241 36.8738 19.6591 36.8738 20.0083C36.8738 20.3576 36.735 20.6926 36.4881 20.9395C36.2411 21.1865 35.9061 21.3252 35.5569 21.3252ZM36.8738 10.7899H5.26768C4.91841 10.7899 4.58345 10.6511 4.33648 10.4042C4.08951 10.1572 3.95076 9.82223 3.95076 9.47296C3.95076 9.12369 4.08951 8.78873 4.33648 8.54176C4.58345 8.29479 4.91841 8.15604 5.26768 8.15604H36.8738C37.223 8.15604 37.558 8.29479 37.805 8.54176C38.0519 8.78873 38.1907 9.12369 38.1907 9.47296C38.1907 9.82223 38.0519 10.1572 37.805 10.4042C37.558 10.6511 37.223 10.7899 36.8738 10.7899ZM71.1137 48.9806C71.1137 50.3776 70.5587 51.7175 69.5708 52.7054C68.583 53.6933 67.2431 54.2483 65.846 54.2483H44.7753C43.3782 54.2483 42.0384 53.6933 41.0505 52.7054C40.0626 51.7175 39.5076 50.3776 39.5076 48.9806V17.3745C39.5076 15.9774 40.0626 14.6376 41.0505 13.6497C42.0384 12.6618 43.3782 12.1068 44.7753 12.1068H48.7261C48.7261 11.4083 49.0035 10.7383 49.4975 10.2444C49.9914 9.75045 50.6614 9.47296 51.3599 9.47296H51.5851C51.8571 8.70217 52.3615 8.03472 53.0288 7.56262C53.696 7.09051 54.4933 6.83698 55.3107 6.83698C56.128 6.83698 56.9253 7.09051 57.5926 7.56262C58.2598 8.03472 58.7642 8.70217 59.0362 9.47296H59.2614C59.96 9.47296 60.6299 9.75045 61.1238 10.2444C61.6178 10.7383 61.8953 11.4083 61.8953 12.1068H65.846C67.2431 12.1068 68.583 12.6618 69.5708 13.6497C70.5587 14.6376 71.1137 15.9774 71.1137 17.3745V48.9806Z" fill="#0E2038"/>
<path d="M73.7475 5.5222C73.7475 4.12512 73.1926 2.78527 72.2047 1.79738C71.2168 0.809503 69.8769 0.254517 68.4799 0.254517H5.26768C3.87061 0.254517 2.53075 0.809503 1.54287 1.79738C0.554986 2.78527 0 4.12512 0 5.5222V55.5652C0 56.9622 0.554986 58.3021 1.54287 59.29C2.53075 60.2779 3.87061 60.8329 5.26768 60.8329H9.21844C9.56771 60.8329 9.90268 60.9716 10.1496 61.2186C10.3966 61.4655 10.5354 61.8005 10.5354 62.1498V71.7633C10.5339 72.1543 10.6362 72.5387 10.832 72.8772C11.0277 73.2157 11.3098 73.4962 11.6495 73.6899C11.9921 73.8912 12.3819 73.9981 12.7793 74C13.1767 74.0018 13.5674 73.8985 13.9119 73.7005L36.2232 61.0054C36.4213 60.892 36.6456 60.8326 36.8738 60.8329H68.4799C69.8769 60.8329 71.2168 60.2779 72.2047 59.29C73.1926 58.3021 73.7475 56.9622 73.7475 55.5652V5.5222ZM27.6553 52.9313H5.26768C4.91841 52.9313 4.58345 52.7926 4.33648 52.5456C4.08951 52.2986 3.95076 51.9637 3.95076 51.6144C3.95076 51.2651 4.08951 50.9302 4.33648 50.6832C4.58345 50.4362 4.91841 50.2975 5.26768 50.2975H27.6553C28.0046 50.2975 28.3396 50.4362 28.5865 50.6832C28.8335 50.9302 28.9722 51.2651 28.9722 51.6144C28.9722 51.9637 28.8335 52.2986 28.5865 52.5456C28.3396 52.7926 28.0046 52.9313 27.6553 52.9313ZM3.95076 41.079C3.95076 40.7298 4.08951 40.3948 4.33648 40.1478C4.58345 39.9009 4.91841 39.7621 5.26768 39.7621H13.1692C13.5185 39.7621 13.8534 39.9009 14.1004 40.1478C14.3474 40.3948 14.4861 40.7298 14.4861 41.079C14.4861 41.4283 14.3474 41.7633 14.1004 42.0103C13.8534 42.2572 13.5185 42.396 13.1692 42.396H5.26768C4.91841 42.396 4.58345 42.2572 4.33648 42.0103C4.08951 41.7633 3.95076 41.4283 3.95076 41.079ZM35.5569 42.396H18.4369C18.0876 42.396 17.7527 42.2572 17.5057 42.0103C17.2587 41.7633 17.12 41.4283 17.12 41.079C17.12 40.7298 17.2587 40.3948 17.5057 40.1478C17.7527 39.9009 18.0876 39.7621 18.4369 39.7621H35.5569C35.9061 39.7621 36.2411 39.9009 36.4881 40.1478C36.735 40.3948 36.8738 40.7298 36.8738 41.079C36.8738 41.4283 36.735 41.7633 36.4881 42.0103C36.2411 42.2572 35.9061 42.396 35.5569 42.396ZM35.5569 31.8606H5.26768C4.91841 31.8606 4.58345 31.7219 4.33648 31.4749C4.08951 31.2279 3.95076 30.893 3.95076 30.5437C3.95076 30.1944 4.08951 29.8595 4.33648 29.6125C4.58345 29.3655 4.91841 29.2268 5.26768 29.2268H35.5569C35.9061 29.2268 36.2411 29.3655 36.4881 29.6125C36.735 29.8595 36.8738 30.1944 36.8738 30.5437C36.8738 30.893 36.735 31.2279 36.4881 31.4749C36.2411 31.7219 35.9061 31.8606 35.5569 31.8606ZM35.5569 21.3252H5.26768C4.91841 21.3252 4.58345 21.1865 4.33648 20.9395C4.08951 20.6926 3.95076 20.3576 3.95076 20.0083C3.95076 19.6591 4.08951 19.3241 4.33648 19.0771C4.58345 18.8301 4.91841 18.6914 5.26768 18.6914H35.5569C35.9061 18.6914 36.2411 18.8301 36.4881 19.0771C36.735 19.3241 36.8738 19.6591 36.8738 20.0083C36.8738 20.3576 36.735 20.6926 36.4881 20.9395C36.2411 21.1865 35.9061 21.3252 35.5569 21.3252ZM36.8738 10.7899H5.26768C4.91841 10.7899 4.58345 10.6511 4.33648 10.4042C4.08951 10.1572 3.95076 9.82223 3.95076 9.47296C3.95076 9.12369 4.08951 8.78873 4.33648 8.54176C4.58345 8.29479 4.91841 8.15604 5.26768 8.15604H36.8738C37.223 8.15604 37.558 8.29479 37.805 8.54176C38.0519 8.78873 38.1907 9.12369 38.1907 9.47296C38.1907 9.82223 38.0519 10.1572 37.805 10.4042C37.558 10.6511 37.223 10.7899 36.8738 10.7899ZM71.1137 48.9806C71.1137 50.3776 70.5587 51.7175 69.5708 52.7054C68.583 53.6933 67.2431 54.2483 65.846 54.2483H44.7753C43.3782 54.2483 42.0384 53.6933 41.0505 52.7054C40.0626 51.7175 39.5076 50.3776 39.5076 48.9806V17.3745C39.5076 15.9774 40.0626 14.6376 41.0505 13.6497C42.0384 12.6618 43.3782 12.1068 44.7753 12.1068H48.7261C48.7261 11.4083 49.0035 10.7383 49.4975 10.2444C49.9914 9.75045 50.6614 9.47296 51.3599 9.47296H51.5851C51.8571 8.70217 52.3615 8.03472 53.0288 7.56262C53.696 7.09051 54.4933 6.83698 55.3107 6.83698C56.128 6.83698 56.9253 7.09051 57.5926 7.56262C58.2598 8.03472 58.7642 8.70217 59.0362 9.47296H59.2614C59.96 9.47296 60.6299 9.75045 61.1238 10.2444C61.6178 10.7383 61.8953 11.4083 61.8953 12.1068H65.846C67.2431 12.1068 68.583 12.6618 69.5708 13.6497C70.5587 14.6376 71.1137 15.9774 71.1137 17.3745V48.9806Z" fill="black" fill-opacity="0.2"/>
<path d="M65.8463 14.741H61.8956C61.8956 15.4395 61.6181 16.1094 61.1242 16.6034C60.6302 17.0973 59.9603 17.3748 59.2617 17.3748H51.3602C50.6617 17.3748 49.9918 17.0973 49.4978 16.6034C49.0039 16.1094 48.7264 15.4395 48.7264 14.741H44.7756C44.0771 14.741 43.4072 15.0185 42.9132 15.5124C42.4193 16.0063 42.1418 16.6763 42.1418 17.3748V48.9809C42.1418 49.6794 42.4193 50.3494 42.9132 50.8433C43.4072 51.3372 44.0771 51.6147 44.7756 51.6147H65.8463C66.5449 51.6147 67.2148 51.3372 67.7088 50.8433C68.2027 50.3494 68.4802 49.6794 68.4802 48.9809V17.3748C68.4802 16.6763 68.2027 16.0063 67.7088 15.5124C67.2148 15.0185 66.5449 14.741 65.8463 14.741ZM52.4138 41.8695L48.463 47.1372C48.3501 47.2887 48.206 47.4142 48.0403 47.5051C47.8747 47.596 47.6914 47.6502 47.503 47.664H47.4095C47.0602 47.6639 46.7253 47.5251 46.4784 47.2781L45.1615 45.9612C44.9216 45.7128 44.7889 45.3802 44.7919 45.0349C44.7949 44.6896 44.9334 44.3593 45.1775 44.1151C45.4217 43.8709 45.752 43.7324 46.0973 43.7294C46.4426 43.7264 46.7752 43.8592 47.0236 44.0991L47.2672 44.3427L50.3067 40.2892C50.5163 40.0098 50.8282 39.8251 51.174 39.7757C51.5197 39.7263 51.871 39.8163 52.1504 40.0258C52.4298 40.2354 52.6145 40.5474 52.6639 40.8931C52.7133 41.2389 52.6233 41.5901 52.4138 41.8695ZM52.4138 32.6511L48.463 37.9188C48.3501 38.0703 48.206 38.1958 48.0403 38.2867C47.8747 38.3776 47.6914 38.4317 47.503 38.4455H47.4095C47.0602 38.4455 46.7253 38.3067 46.4784 38.0597L45.1615 36.7428C44.9216 36.4944 44.7889 36.1617 44.7919 35.8164C44.7949 35.4711 44.9334 35.1408 45.1775 34.8967C45.4217 34.6525 45.752 34.514 46.0973 34.511C46.4426 34.508 46.7752 34.6407 47.0236 34.8806L47.2672 35.1243L50.3067 31.0708C50.4105 30.9324 50.5405 30.8159 50.6893 30.7278C50.8381 30.6396 51.0028 30.5817 51.174 30.5572C51.3452 30.5328 51.5195 30.5423 51.6871 30.5852C51.8546 30.6281 52.012 30.7036 52.1504 30.8074C52.2887 30.9112 52.4053 31.0412 52.4934 31.19C52.5815 31.3388 52.6395 31.5035 52.6639 31.6747C52.6884 31.8459 52.6789 32.0202 52.6359 32.1878C52.593 32.3553 52.5175 32.5127 52.4138 32.6511ZM52.4138 23.4326L48.463 28.7003C48.3501 28.8519 48.206 28.9773 48.0403 29.0682C47.8747 29.1591 47.6914 29.2133 47.503 29.2271H47.4095C47.0602 29.227 46.7253 29.0882 46.4784 28.8412L45.1615 27.5243C44.9216 27.2759 44.7889 26.9433 44.7919 26.598C44.7949 26.2527 44.9334 25.9224 45.1775 25.6782C45.4217 25.4341 45.752 25.2956 46.0973 25.2926C46.4426 25.2896 46.7752 25.4223 47.0236 25.6622L47.2672 25.9058L50.3067 21.8523C50.4105 21.714 50.5405 21.5974 50.6893 21.5093C50.8381 21.4212 51.0028 21.3633 51.174 21.3388C51.3452 21.3143 51.5195 21.3238 51.6871 21.3668C51.8546 21.4097 52.012 21.4852 52.1504 21.589C52.2887 21.6927 52.4053 21.8227 52.4934 21.9715C52.5815 22.1203 52.6395 22.285 52.6639 22.4562C52.6884 22.6274 52.6789 22.8018 52.6359 22.9693C52.593 23.1369 52.5175 23.2943 52.4138 23.4326ZM64.5294 45.0301H56.6279C56.2786 45.0301 55.9437 44.8914 55.6967 44.6444C55.4497 44.3974 55.311 44.0625 55.311 43.7132C55.311 43.3639 55.4497 43.029 55.6967 42.782C55.9437 42.535 56.2786 42.3963 56.6279 42.3963H64.5294C64.8787 42.3963 65.2137 42.535 65.4606 42.782C65.7076 43.029 65.8463 43.3639 65.8463 43.7132C65.8463 44.0625 65.7076 44.3974 65.4606 44.6444C65.2137 44.8914 64.8787 45.0301 64.5294 45.0301ZM64.5294 35.8117H56.6279C56.2786 35.8117 55.9437 35.6729 55.6967 35.426C55.4497 35.179 55.311 34.844 55.311 34.4948C55.311 34.1455 55.4497 33.8105 55.6967 33.5636C55.9437 33.3166 56.2786 33.1779 56.6279 33.1779H64.5294C64.8787 33.1779 65.2137 33.3166 65.4606 33.5636C65.7076 33.8105 65.8463 34.1455 65.8463 34.4948C65.8463 34.844 65.7076 35.179 65.4606 35.426C65.2137 35.6729 64.8787 35.8117 64.5294 35.8117ZM64.5294 26.5933H56.6279C56.2786 26.5933 55.9437 26.4545 55.6967 26.2075C55.4497 25.9606 55.311 25.6256 55.311 25.2763C55.311 24.9271 55.4497 24.5921 55.6967 24.3451C55.9437 24.0982 56.2786 23.9594 56.6279 23.9594H64.5294C64.8787 23.9594 65.2137 24.0982 65.4606 24.3451C65.7076 24.5921 65.8463 24.9271 65.8463 25.2763C65.8463 25.6256 65.7076 25.9606 65.4606 26.2075C65.2137 26.4545 64.8787 26.5933 64.5294 26.5933Z" fill="#0E2038"/>
<path d="M65.8463 14.741H61.8956C61.8956 15.4395 61.6181 16.1094 61.1242 16.6034C60.6302 17.0973 59.9603 17.3748 59.2617 17.3748H51.3602C50.6617 17.3748 49.9918 17.0973 49.4978 16.6034C49.0039 16.1094 48.7264 15.4395 48.7264 14.741H44.7756C44.0771 14.741 43.4072 15.0185 42.9132 15.5124C42.4193 16.0063 42.1418 16.6763 42.1418 17.3748V48.9809C42.1418 49.6794 42.4193 50.3494 42.9132 50.8433C43.4072 51.3372 44.0771 51.6147 44.7756 51.6147H65.8463C66.5449 51.6147 67.2148 51.3372 67.7088 50.8433C68.2027 50.3494 68.4802 49.6794 68.4802 48.9809V17.3748C68.4802 16.6763 68.2027 16.0063 67.7088 15.5124C67.2148 15.0185 66.5449 14.741 65.8463 14.741ZM52.4138 41.8695L48.463 47.1372C48.3501 47.2887 48.206 47.4142 48.0403 47.5051C47.8747 47.596 47.6914 47.6502 47.503 47.664H47.4095C47.0602 47.6639 46.7253 47.5251 46.4784 47.2781L45.1615 45.9612C44.9216 45.7128 44.7889 45.3802 44.7919 45.0349C44.7949 44.6896 44.9334 44.3593 45.1775 44.1151C45.4217 43.8709 45.752 43.7324 46.0973 43.7294C46.4426 43.7264 46.7752 43.8592 47.0236 44.0991L47.2672 44.3427L50.3067 40.2892C50.5163 40.0098 50.8282 39.8251 51.174 39.7757C51.5197 39.7263 51.871 39.8163 52.1504 40.0258C52.4298 40.2354 52.6145 40.5474 52.6639 40.8931C52.7133 41.2389 52.6233 41.5901 52.4138 41.8695ZM52.4138 32.6511L48.463 37.9188C48.3501 38.0703 48.206 38.1958 48.0403 38.2867C47.8747 38.3776 47.6914 38.4317 47.503 38.4455H47.4095C47.0602 38.4455 46.7253 38.3067 46.4784 38.0597L45.1615 36.7428C44.9216 36.4944 44.7889 36.1617 44.7919 35.8164C44.7949 35.4711 44.9334 35.1408 45.1775 34.8967C45.4217 34.6525 45.752 34.514 46.0973 34.511C46.4426 34.508 46.7752 34.6407 47.0236 34.8806L47.2672 35.1243L50.3067 31.0708C50.4105 30.9324 50.5405 30.8159 50.6893 30.7278C50.8381 30.6396 51.0028 30.5817 51.174 30.5572C51.3452 30.5328 51.5195 30.5423 51.6871 30.5852C51.8546 30.6281 52.012 30.7036 52.1504 30.8074C52.2887 30.9112 52.4053 31.0412 52.4934 31.19C52.5815 31.3388 52.6395 31.5035 52.6639 31.6747C52.6884 31.8459 52.6789 32.0202 52.6359 32.1878C52.593 32.3553 52.5175 32.5127 52.4138 32.6511ZM52.4138 23.4326L48.463 28.7003C48.3501 28.8519 48.206 28.9773 48.0403 29.0682C47.8747 29.1591 47.6914 29.2133 47.503 29.2271H47.4095C47.0602 29.227 46.7253 29.0882 46.4784 28.8412L45.1615 27.5243C44.9216 27.2759 44.7889 26.9433 44.7919 26.598C44.7949 26.2527 44.9334 25.9224 45.1775 25.6782C45.4217 25.4341 45.752 25.2956 46.0973 25.2926C46.4426 25.2896 46.7752 25.4223 47.0236 25.6622L47.2672 25.9058L50.3067 21.8523C50.4105 21.714 50.5405 21.5974 50.6893 21.5093C50.8381 21.4212 51.0028 21.3633 51.174 21.3388C51.3452 21.3143 51.5195 21.3238 51.6871 21.3668C51.8546 21.4097 52.012 21.4852 52.1504 21.589C52.2887 21.6927 52.4053 21.8227 52.4934 21.9715C52.5815 22.1203 52.6395 22.285 52.6639 22.4562C52.6884 22.6274 52.6789 22.8018 52.6359 22.9693C52.593 23.1369 52.5175 23.2943 52.4138 23.4326ZM64.5294 45.0301H56.6279C56.2786 45.0301 55.9437 44.8914 55.6967 44.6444C55.4497 44.3974 55.311 44.0625 55.311 43.7132C55.311 43.3639 55.4497 43.029 55.6967 42.782C55.9437 42.535 56.2786 42.3963 56.6279 42.3963H64.5294C64.8787 42.3963 65.2137 42.535 65.4606 42.782C65.7076 43.029 65.8463 43.3639 65.8463 43.7132C65.8463 44.0625 65.7076 44.3974 65.4606 44.6444C65.2137 44.8914 64.8787 45.0301 64.5294 45.0301ZM64.5294 35.8117H56.6279C56.2786 35.8117 55.9437 35.6729 55.6967 35.426C55.4497 35.179 55.311 34.844 55.311 34.4948C55.311 34.1455 55.4497 33.8105 55.6967 33.5636C55.9437 33.3166 56.2786 33.1779 56.6279 33.1779H64.5294C64.8787 33.1779 65.2137 33.3166 65.4606 33.5636C65.7076 33.8105 65.8463 34.1455 65.8463 34.4948C65.8463 34.844 65.7076 35.179 65.4606 35.426C65.2137 35.6729 64.8787 35.8117 64.5294 35.8117ZM64.5294 26.5933H56.6279C56.2786 26.5933 55.9437 26.4545 55.6967 26.2075C55.4497 25.9606 55.311 25.6256 55.311 25.2763C55.311 24.9271 55.4497 24.5921 55.6967 24.3451C55.9437 24.0982 56.2786 23.9594 56.6279 23.9594H64.5294C64.8787 23.9594 65.2137 24.0982 65.4606 24.3451C65.7076 24.5921 65.8463 24.9271 65.8463 25.2763C65.8463 25.6256 65.7076 25.9606 65.4606 26.2075C65.2137 26.4545 64.8787 26.5933 64.5294 26.5933Z" fill="black" fill-opacity="0.2"/>
</svg>
