<svg width="61" height="60" viewBox="0 0 61 60" fill="none" xmlns="http://www.w3.org/2000/svg">
<path d="M54.054 38.375C54.4795 40.2418 54.7207 42.1459 54.774 44.0598H60.1224C59.9776 41.9409 59.3827 39.8772 58.3772 38.0064C56.9555 38.1558 55.5133 38.2751 54.054 38.375Z" fill="#FAFCFF"/>
<path d="M60.1247 46.2091H54.7762C54.7224 48.1237 54.4812 50.0284 54.0562 51.8961C55.5145 51.9949 56.9577 52.111 58.3795 52.2625C59.3849 50.3917 59.9799 48.328 60.1247 46.2091Z" fill="#FAFCFF"/>
<path d="M50.8774 31.2344C52.0072 32.7554 52.876 34.454 53.4479 36.2604C54.6594 36.1816 55.8576 36.0867 57.0425 35.9757C55.4365 33.8843 53.311 32.2497 50.8774 31.2344Z" fill="#FAFCFF"/>
<path d="M53.4479 54.0088C52.876 55.8152 52.0072 57.5138 50.8774 59.0348C53.311 58.0196 55.4365 56.385 57.0425 54.2936C55.8562 54.1818 54.6579 54.0869 53.4479 54.0088Z" fill="#FAFCFF"/>
<path d="M46.2092 60.0001C48.2338 59.3897 50.022 57.0986 51.1998 53.8833C49.5448 53.8073 47.8813 53.7629 46.2092 53.75V60.0001Z" fill="#FAFCFF"/>
<path d="M46.2092 51.6005C48.0984 51.6156 49.9833 51.6639 51.851 51.7585C52.3034 49.941 52.5642 48.081 52.629 46.2091H46.2092V51.6005Z" fill="#FAFCFF"/>
<path d="M46.2092 30.269V36.5191C47.8791 36.5062 49.5427 36.4618 51.1998 36.3859C50.022 33.1663 48.2338 30.8794 46.2092 30.269Z" fill="#FAFCFF"/>
<path d="M44.0599 38.6727C42.1631 38.6576 40.2782 38.6082 38.417 38.5136C37.9653 40.3302 37.7049 42.189 37.64 44.0598H44.0599V38.6727Z" fill="#FAFCFF"/>
<path d="M39.3917 31.2344C36.9581 32.2497 34.8326 33.8843 33.2266 35.9757C34.413 36.0874 35.6112 36.1823 36.8212 36.2604C37.3932 34.454 38.2619 32.7554 39.3917 31.2344Z" fill="#FAFCFF"/>
<path d="M18.2687 16.1195C18.2714 16.7839 18.4794 17.4312 18.8641 17.9729C19.2488 18.5146 19.7915 18.9242 20.4179 19.1457V13.0933C19.7915 13.3148 19.2488 13.7244 18.8641 14.2661C18.4794 14.8078 18.2714 15.4551 18.2687 16.1195Z" fill="#FAFCFF"/>
<path d="M22.5673 27.7428C23.1954 27.524 23.7399 27.1151 24.1252 26.5728C24.5105 26.0306 24.7175 25.3819 24.7175 24.7167C24.7175 24.0515 24.5105 23.4027 24.1252 22.8605C23.7399 22.3182 23.1954 21.9093 22.5673 21.6905V27.7428Z" fill="#FAFCFF"/>
<path d="M40.836 28.5068V1.07463C40.836 0.789623 40.7228 0.516285 40.5213 0.314753C40.3198 0.11322 40.0464 0 39.7614 0H4.29852V47.2839H28.0898C27.5361 43.1347 28.5295 38.9269 30.8805 35.4635C33.2315 32.0001 36.7755 29.5237 40.836 28.5068ZM26.8658 24.7166C26.8643 25.9548 26.4359 27.1546 25.6529 28.1137C24.8699 29.0729 23.7801 29.7328 22.5673 29.9823V30.0897C22.5673 30.3747 22.4541 30.6481 22.2525 30.8496C22.051 31.0511 21.7777 31.1644 21.4927 31.1644C21.2076 31.1644 20.9343 31.0511 20.7328 30.8496C20.5312 30.6481 20.418 30.3747 20.418 30.0897V29.9823C19.2052 29.7328 18.1155 29.0729 17.3324 28.1137C16.5494 27.1546 16.121 25.9548 16.1195 24.7166C16.1195 24.4315 16.2327 24.1582 16.4342 23.9567C16.6358 23.7551 16.9091 23.6419 17.1941 23.6419C17.4791 23.6419 17.7525 23.7551 17.954 23.9567C18.1555 24.1582 18.2688 24.4315 18.2688 24.7166C18.2715 25.381 18.4795 26.0283 18.8642 26.57C19.2489 27.1117 19.7916 27.5213 20.418 27.7427V21.3852C19.2034 21.1386 18.1113 20.4796 17.327 19.5199C16.5426 18.5603 16.1141 17.3589 16.1141 16.1195C16.1141 14.8801 16.5426 13.6787 17.327 12.7191C18.1113 11.7594 19.2034 11.1004 20.418 10.8538V10.7463C20.418 10.4613 20.5312 10.188 20.7328 9.98645C20.9343 9.78492 21.2076 9.6717 21.4927 9.6717C21.7777 9.6717 22.051 9.78492 22.2525 9.98645C22.4541 10.188 22.5673 10.4613 22.5673 10.7463V10.8538C23.7801 11.1032 24.8699 11.7631 25.6529 12.7223C26.4359 13.6815 26.8643 14.8813 26.8658 16.1195C26.8658 16.4045 26.7526 16.6778 26.5511 16.8794C26.3495 17.0809 26.0762 17.1941 25.7912 17.1941C25.5062 17.1941 25.2328 17.0809 25.0313 16.8794C24.8298 16.6778 24.7165 16.4045 24.7165 16.1195C24.7138 15.4551 24.5058 14.8078 24.1211 14.2661C23.7364 13.7244 23.1937 13.3148 22.5673 13.0933V19.4509C23.7801 19.7003 24.8699 20.3602 25.6529 21.3194C26.4359 22.2786 26.8643 23.4784 26.8658 24.7166Z" fill="#FAFCFF"/>
<path d="M36.2151 51.8961C35.7893 50.0285 35.5475 48.1238 35.4929 46.2091H30.1445C30.2892 48.328 30.8842 50.3917 31.8897 52.2625C33.3136 52.1196 34.7546 51.9949 36.2151 51.8961Z" fill="#FAFCFF"/>
<path d="M30.1445 44.0598H35.4929C35.5462 42.1459 35.7874 40.2418 36.2129 38.375C34.7557 38.2751 33.3114 38.1601 31.8897 38.0064C30.8842 39.8772 30.2892 41.9409 30.1445 44.0598Z" fill="#FAFCFF"/>
<path d="M44.0599 46.2091H37.64C37.7048 48.081 37.9656 49.941 38.418 51.7585C40.2858 51.6639 42.1707 51.6156 44.0599 51.6005V46.2091Z" fill="#FAFCFF"/>
<path d="M44.0599 30.269C42.0353 30.8794 40.2471 33.1706 39.0693 36.3859C40.7243 36.4618 42.3878 36.5062 44.0599 36.5191V30.269Z" fill="#FAFCFF"/>
<path d="M0 48.3584C0.636992 47.8852 1.37106 47.5593 2.14927 47.4042V0.197693C1.52285 0.419157 0.980163 0.828751 0.595441 1.37044C0.210718 1.91213 0.00275425 2.55946 0 3.22386V48.3584Z" fill="#FAFCFF"/>
<path d="M44.0599 60.0001V53.75C42.39 53.7629 40.7264 53.8073 39.0693 53.8833C40.2471 57.1029 42.0353 59.3897 44.0599 60.0001Z" fill="#FAFCFF"/>
<path d="M46.2092 44.0598H52.629C52.5641 42.189 52.3037 40.3302 51.8521 38.5136C49.9908 38.6082 48.1059 38.6576 46.2092 38.6727V44.0598Z" fill="#FAFCFF"/>
<path d="M39.3917 59.0348C38.2619 57.5138 37.3932 55.8152 36.8212 54.0088C35.6097 54.0876 34.4115 54.1825 33.2266 54.2936C34.8326 56.385 36.9581 58.0196 39.3917 59.0348Z" fill="#FAFCFF"/>
<path d="M3.2239 55.8808H31.7339C31.1917 55.2022 30.7014 54.4837 30.267 53.7315H26.8658C26.5808 53.7315 26.3075 53.6183 26.1059 53.4168C25.9044 53.2152 25.7912 52.9419 25.7912 52.6569C25.7912 52.3719 25.9044 52.0985 26.1059 51.897C26.3075 51.6955 26.5808 51.5822 26.8658 51.5822H29.2064C28.9261 50.882 28.6924 50.164 28.5068 49.433H3.2239C2.36887 49.433 1.54886 49.7726 0.944258 50.3772C0.33966 50.9818 0 51.8019 0 52.6569C0 53.5119 0.33966 54.3319 0.944258 54.9365C1.54886 55.5411 2.36887 55.8808 3.2239 55.8808ZM7.52243 51.5822H22.5673C22.8523 51.5822 23.1256 51.6955 23.3272 51.897C23.5287 52.0985 23.6419 52.3719 23.6419 52.6569C23.6419 52.9419 23.5287 53.2152 23.3272 53.4168C23.1256 53.6183 22.8523 53.7315 22.5673 53.7315H7.52243C7.23742 53.7315 6.96408 53.6183 6.76255 53.4168C6.56102 53.2152 6.4478 52.9419 6.4478 52.6569C6.4478 52.3719 6.56102 52.0985 6.76255 51.897C6.96408 51.6955 7.23742 51.5822 7.52243 51.5822Z" fill="#FAFCFF"/>
</svg>
