<svg width="83" height="83" viewBox="0 0 83 83" fill="none" xmlns="http://www.w3.org/2000/svg">
<path d="M74.1701 53.118C74.754 55.6795 75.0849 58.2922 75.1581 60.9184H82.4969C82.2983 58.0109 81.4819 55.1792 80.1023 52.6122C78.1514 52.8171 76.1726 52.9808 74.1701 53.118Z" fill="#0E2038"/>
<path d="M74.1701 53.118C74.754 55.6795 75.0849 58.2922 75.1581 60.9184H82.4969C82.2983 58.0109 81.4819 55.1792 80.1023 52.6122C78.1514 52.8171 76.1726 52.9808 74.1701 53.118Z" fill="black" fill-opacity="0.2"/>
<path d="M82.4999 63.8676H75.1611C75.0872 66.4947 74.7563 69.1083 74.1731 71.6709C76.1741 71.8066 78.1544 71.9658 80.1052 72.1737C81.4849 69.6067 82.3013 66.775 82.4999 63.8676Z" fill="#0E2038"/>
<path d="M82.4999 63.8676H75.1611C75.0872 66.4947 74.7563 69.1083 74.1731 71.6709C76.1741 71.8066 78.1544 71.9658 80.1052 72.1737C81.4849 69.6067 82.3013 66.775 82.4999 63.8676Z" fill="black" fill-opacity="0.2"/>
<path d="M69.8114 43.3199C71.3617 45.407 72.5537 47.7377 73.3385 50.2164C75.0009 50.1083 76.645 49.978 78.2709 49.8256C76.0672 46.9559 73.1507 44.713 69.8114 43.3199Z" fill="#0E2038"/>
<path d="M69.8114 43.3199C71.3617 45.407 72.5537 47.7377 73.3385 50.2164C75.0009 50.1083 76.645 49.978 78.2709 49.8256C76.0672 46.9559 73.1507 44.713 69.8114 43.3199Z" fill="black" fill-opacity="0.2"/>
<path d="M73.3385 74.5699C72.5537 77.0486 71.3617 79.3793 69.8114 81.4664C73.1507 80.0733 76.0672 77.8304 78.2709 74.9606C76.643 74.8073 74.9989 74.677 73.3385 74.5699Z" fill="#0E2038"/>
<path d="M73.3385 74.5699C72.5537 77.0486 71.3617 79.3793 69.8114 81.4664C73.1507 80.0733 76.0672 77.8304 78.2709 74.9606C76.643 74.8073 74.9989 74.677 73.3385 74.5699Z" fill="black" fill-opacity="0.2"/>
<path d="M63.4058 82.7909C66.1839 81.9533 68.6376 78.8096 70.2537 74.3977C67.9828 74.2935 65.7002 74.2325 63.4058 74.2148V82.7909Z" fill="#0E2038"/>
<path d="M63.4058 82.7909C66.1839 81.9533 68.6376 78.8096 70.2537 74.3977C67.9828 74.2935 65.7002 74.2325 63.4058 74.2148V82.7909Z" fill="black" fill-opacity="0.2"/>
<path d="M63.4058 71.2654C65.9981 71.286 68.5845 71.3524 71.1472 71.4822C71.7681 68.9882 72.1259 66.4361 72.2148 63.8676H63.4058V71.2654Z" fill="#0E2038"/>
<path d="M63.4058 71.2654C65.9981 71.286 68.5845 71.3524 71.1472 71.4822C71.7681 68.9882 72.1259 66.4361 72.2148 63.8676H63.4058V71.2654Z" fill="black" fill-opacity="0.2"/>
<path d="M63.4058 41.9954V50.5714C65.6973 50.5538 67.9799 50.4928 70.2537 50.3886C68.6376 45.9708 66.1839 42.833 63.4058 41.9954Z" fill="#0E2038"/>
<path d="M63.4058 41.9954V50.5714C65.6973 50.5538 67.9799 50.4928 70.2537 50.3886C68.6376 45.9708 66.1839 42.833 63.4058 41.9954Z" fill="black" fill-opacity="0.2"/>
<path d="M60.4566 53.5264C57.8541 53.5058 55.2677 53.4379 52.7137 53.3082C52.0941 55.8008 51.7367 58.3514 51.6476 60.9184H60.4566V53.5264Z" fill="#0E2038"/>
<path d="M60.4566 53.5264C57.8541 53.5058 55.2677 53.4379 52.7137 53.3082C52.0941 55.8008 51.7367 58.3514 51.6476 60.9184H60.4566V53.5264Z" fill="black" fill-opacity="0.2"/>
<path d="M54.0513 43.3199C50.712 44.713 47.7955 46.9559 45.5918 49.8256C47.2197 49.979 48.8638 50.1092 50.5242 50.2164C51.309 47.7377 52.501 45.407 54.0513 43.3199Z" fill="#0E2038"/>
<path d="M54.0513 43.3199C50.712 44.713 47.7955 46.9559 45.5918 49.8256C47.2197 49.979 48.8638 50.1092 50.5242 50.2164C51.309 47.7377 52.501 45.407 54.0513 43.3199Z" fill="black" fill-opacity="0.2"/>
<path d="M25.0674 22.58C25.0712 23.4917 25.3566 24.3799 25.8845 25.1232C26.4124 25.8665 27.157 26.4285 28.0166 26.7324V18.4277C27.157 18.7316 26.4124 19.2936 25.8845 20.0369C25.3566 20.7801 25.0712 21.6684 25.0674 22.58Z" fill="#0E2038"/>
<path d="M25.0674 22.58C25.0712 23.4917 25.3566 24.3799 25.8845 25.1232C26.4124 25.8665 27.157 26.4285 28.0166 26.7324V18.4277C27.157 18.7316 26.4124 19.2936 25.8845 20.0369C25.3566 20.7801 25.0712 21.6684 25.0674 22.58Z" fill="black" fill-opacity="0.2"/>
<path d="M30.9657 38.5291C31.8276 38.2288 32.5748 37.6677 33.1035 36.9237C33.6322 36.1796 33.9162 35.2895 33.9162 34.3767C33.9162 33.464 33.6322 32.5738 33.1035 31.8298C32.5748 31.0857 31.8276 30.5247 30.9657 30.2244V38.5291Z" fill="#0E2038"/>
<path d="M30.9657 38.5291C31.8276 38.2288 32.5748 37.6677 33.1035 36.9237C33.6322 36.1796 33.9162 35.2895 33.9162 34.3767C33.9162 33.464 33.6322 32.5738 33.1035 31.8298C32.5748 31.0857 31.8276 30.5247 30.9657 30.2244V38.5291Z" fill="black" fill-opacity="0.2"/>
<path d="M56.0333 39.5773V1.93629C56.0333 1.54521 55.8779 1.17015 55.6014 0.893619C55.3248 0.617086 54.9498 0.461731 54.5587 0.461731H5.89832V65.3422H38.5435C37.7837 59.649 39.1469 53.8752 42.3728 49.123C45.5987 44.3707 50.4616 40.9726 56.0333 39.5773ZM36.864 34.3765C36.8619 36.0755 36.2741 37.7218 35.1997 39.038C34.1252 40.3541 32.6299 41.2596 30.9658 41.6019V41.7493C30.9658 42.1404 30.8104 42.5155 30.5339 42.792C30.2574 43.0685 29.8823 43.2239 29.4912 43.2239C29.1001 43.2239 28.7251 43.0685 28.4486 42.792C28.172 42.5155 28.0167 42.1404 28.0167 41.7493V41.6019C26.3525 41.2596 24.8572 40.3541 23.7828 39.038C22.7084 37.7218 22.1206 36.0755 22.1184 34.3765C22.1184 33.9855 22.2738 33.6104 22.5503 33.3339C22.8269 33.0573 23.2019 32.902 23.593 32.902C23.9841 32.902 24.3591 33.0573 24.6357 33.3339C24.9122 33.6104 25.0676 33.9855 25.0676 34.3765C25.0713 35.2882 25.3567 36.1764 25.8846 36.9197C26.4125 37.663 27.1571 38.225 28.0167 38.5289V29.8054C26.35 29.467 24.8516 28.5628 23.7753 27.246C22.699 25.9292 22.1111 24.2808 22.1111 22.5801C22.1111 20.8794 22.699 19.231 23.7753 17.9142C24.8516 16.5974 26.35 15.6932 28.0167 15.3548V15.2073C28.0167 14.8162 28.172 14.4412 28.4486 14.1646C28.7251 13.8881 29.1001 13.7327 29.4912 13.7327C29.8823 13.7327 30.2574 13.8881 30.5339 14.1646C30.8104 14.4412 30.9658 14.8162 30.9658 15.2073V15.3548C32.6299 15.697 34.1252 16.6025 35.1997 17.9186C36.2741 19.2348 36.8619 20.8811 36.864 22.5801C36.864 22.9712 36.7087 23.3462 36.4321 23.6228C36.1556 23.8993 35.7805 24.0546 35.3895 24.0546C34.9984 24.0546 34.6233 23.8993 34.3468 23.6228C34.0703 23.3462 33.9149 22.9712 33.9149 22.5801C33.9111 21.6684 33.6258 20.7802 33.0979 20.0369C32.57 19.2936 31.8253 18.7316 30.9658 18.4277V27.1512C32.6299 27.4935 34.1252 28.399 35.1997 29.7151C36.2741 31.0312 36.8619 32.6776 36.864 34.3765Z" fill="#0E2038"/>
<path d="M56.0333 39.5773V1.93629C56.0333 1.54521 55.8779 1.17015 55.6014 0.893619C55.3248 0.617086 54.9498 0.461731 54.5587 0.461731H5.89832V65.3422H38.5435C37.7837 59.649 39.1469 53.8752 42.3728 49.123C45.5987 44.3707 50.4616 40.9726 56.0333 39.5773ZM36.864 34.3765C36.8619 36.0755 36.2741 37.7218 35.1997 39.038C34.1252 40.3541 32.6299 41.2596 30.9658 41.6019V41.7493C30.9658 42.1404 30.8104 42.5155 30.5339 42.792C30.2574 43.0685 29.8823 43.2239 29.4912 43.2239C29.1001 43.2239 28.7251 43.0685 28.4486 42.792C28.172 42.5155 28.0167 42.1404 28.0167 41.7493V41.6019C26.3525 41.2596 24.8572 40.3541 23.7828 39.038C22.7084 37.7218 22.1206 36.0755 22.1184 34.3765C22.1184 33.9855 22.2738 33.6104 22.5503 33.3339C22.8269 33.0573 23.2019 32.902 23.593 32.902C23.9841 32.902 24.3591 33.0573 24.6357 33.3339C24.9122 33.6104 25.0676 33.9855 25.0676 34.3765C25.0713 35.2882 25.3567 36.1764 25.8846 36.9197C26.4125 37.663 27.1571 38.225 28.0167 38.5289V29.8054C26.35 29.467 24.8516 28.5628 23.7753 27.246C22.699 25.9292 22.1111 24.2808 22.1111 22.5801C22.1111 20.8794 22.699 19.231 23.7753 17.9142C24.8516 16.5974 26.35 15.6932 28.0167 15.3548V15.2073C28.0167 14.8162 28.172 14.4412 28.4486 14.1646C28.7251 13.8881 29.1001 13.7327 29.4912 13.7327C29.8823 13.7327 30.2574 13.8881 30.5339 14.1646C30.8104 14.4412 30.9658 14.8162 30.9658 15.2073V15.3548C32.6299 15.697 34.1252 16.6025 35.1997 17.9186C36.2741 19.2348 36.8619 20.8811 36.864 22.5801C36.864 22.9712 36.7087 23.3462 36.4321 23.6228C36.1556 23.8993 35.7805 24.0546 35.3895 24.0546C34.9984 24.0546 34.6233 23.8993 34.3468 23.6228C34.0703 23.3462 33.9149 22.9712 33.9149 22.5801C33.9111 21.6684 33.6258 20.7802 33.0979 20.0369C32.57 19.2936 31.8253 18.7316 30.9658 18.4277V27.1512C32.6299 27.4935 34.1252 28.399 35.1997 29.7151C36.2741 31.0312 36.8619 32.6776 36.864 34.3765Z" fill="black" fill-opacity="0.2"/>
<path d="M49.6924 71.6709C49.1083 69.1084 48.7764 66.4948 48.7015 63.8676H41.3627C41.5613 66.775 42.3777 69.6067 43.7573 72.1737C45.7111 71.9776 47.6885 71.8066 49.6924 71.6709Z" fill="#0E2038"/>
<path d="M49.6924 71.6709C49.1083 69.1084 48.7764 66.4948 48.7015 63.8676H41.3627C41.5613 66.775 42.3777 69.6067 43.7573 72.1737C45.7111 71.9776 47.6885 71.8066 49.6924 71.6709Z" fill="black" fill-opacity="0.2"/>
<path d="M41.3627 60.9184H48.7015C48.7747 58.2922 49.1056 55.6795 49.6895 53.118C47.69 52.9808 45.7082 52.823 43.7573 52.6122C42.3777 55.1792 41.5613 58.0109 41.3627 60.9184Z" fill="#0E2038"/>
<path d="M41.3627 60.9184H48.7015C48.7747 58.2922 49.1056 55.6795 49.6895 53.118C47.69 52.9808 45.7082 52.823 43.7573 52.6122C42.3777 55.1792 41.5613 58.0109 41.3627 60.9184Z" fill="black" fill-opacity="0.2"/>
<path d="M60.4566 63.8676H51.6476C51.7366 66.4361 52.0944 68.9882 52.7152 71.4822C55.278 71.3524 57.8644 71.286 60.4566 71.2654V63.8676Z" fill="#0E2038"/>
<path d="M60.4566 63.8676H51.6476C51.7366 66.4361 52.0944 68.9882 52.7152 71.4822C55.278 71.3524 57.8644 71.286 60.4566 71.2654V63.8676Z" fill="black" fill-opacity="0.2"/>
<path d="M60.4569 41.9954C57.6788 42.833 55.2251 45.9767 53.609 50.3886C55.8798 50.4928 58.1624 50.5538 60.4569 50.5714V41.9954Z" fill="#0E2038"/>
<path d="M60.4569 41.9954C57.6788 42.833 55.2251 45.9767 53.609 50.3886C55.8798 50.4928 58.1624 50.5538 60.4569 50.5714V41.9954Z" fill="black" fill-opacity="0.2"/>
<path d="M0 66.8168C0.874048 66.1675 1.8813 65.7203 2.94911 65.5074V0.733032C2.08958 1.03691 1.34493 1.59894 0.817034 2.34222C0.289137 3.0855 0.00377924 3.97372 0 4.88538V66.8168Z" fill="#0E2038"/>
<path d="M0 66.8168C0.874048 66.1675 1.8813 65.7203 2.94911 65.5074V0.733032C2.08958 1.03691 1.34493 1.59894 0.817034 2.34222C0.289137 3.0855 0.00377924 3.97372 0 4.88538V66.8168Z" fill="black" fill-opacity="0.2"/>
<path d="M60.4569 82.7909V74.2148C58.1654 74.2325 55.8828 74.2935 53.609 74.3977C55.2251 78.8155 57.6788 81.9533 60.4569 82.7909Z" fill="#0E2038"/>
<path d="M60.4569 82.7909V74.2148C58.1654 74.2325 55.8828 74.2935 53.609 74.3977C55.2251 78.8155 57.6788 81.9533 60.4569 82.7909Z" fill="black" fill-opacity="0.2"/>
<path d="M63.4058 60.9184H72.2148C72.1257 58.3514 71.7684 55.8008 71.1487 53.3082C68.5948 53.4379 66.0084 53.5058 63.4058 53.5264V60.9184Z" fill="#0E2038"/>
<path d="M63.4058 60.9184H72.2148C72.1257 58.3514 71.7684 55.8008 71.1487 53.3082C68.5948 53.4379 66.0084 53.5058 63.4058 53.5264V60.9184Z" fill="black" fill-opacity="0.2"/>
<path d="M54.0513 81.4664C52.501 79.3793 51.309 77.0486 50.5242 74.5699C48.8619 74.678 47.2177 74.8083 45.5918 74.9606C47.7955 77.8304 50.712 80.0733 54.0513 81.4664Z" fill="#0E2038"/>
<path d="M54.0513 81.4664C52.501 79.3793 51.309 77.0486 50.5242 74.5699C48.8619 74.678 47.2177 74.8083 45.5918 74.9606C47.7955 77.8304 50.712 80.0733 54.0513 81.4664Z" fill="black" fill-opacity="0.2"/>
<path d="M4.42367 77.1385H43.5437C42.7997 76.2074 42.1268 75.2216 41.5309 74.1894H36.8639C36.4728 74.1894 36.0978 74.0341 35.8213 73.7575C35.5447 73.481 35.3894 73.1059 35.3894 72.7149C35.3894 72.3238 35.5447 71.9487 35.8213 71.6722C36.0978 71.3957 36.4728 71.2403 36.8639 71.2403H40.0755C39.691 70.2795 39.3703 69.2943 39.1156 68.2912H4.42367C3.25044 68.2912 2.12526 68.7573 1.29566 69.5869C0.466064 70.4165 0 71.5416 0 72.7149C0 73.8881 0.466064 75.0133 1.29566 75.8429C2.12526 76.6725 3.25044 77.1385 4.42367 77.1385ZM10.3219 71.2403H30.9657C31.3568 71.2403 31.7318 71.3957 32.0084 71.6722C32.2849 71.9487 32.4403 72.3238 32.4403 72.7149C32.4403 73.1059 32.2849 73.481 32.0084 73.7575C31.7318 74.0341 31.3568 74.1894 30.9657 74.1894H10.3219C9.93082 74.1894 9.55576 74.0341 9.27923 73.7575C9.0027 73.481 8.84734 73.1059 8.84734 72.7149C8.84734 72.3238 9.0027 71.9487 9.27923 71.6722C9.55576 71.3957 9.93082 71.2403 10.3219 71.2403Z" fill="#0E2038"/>
<path d="M4.42367 77.1385H43.5437C42.7997 76.2074 42.1268 75.2216 41.5309 74.1894H36.8639C36.4728 74.1894 36.0978 74.0341 35.8213 73.7575C35.5447 73.481 35.3894 73.1059 35.3894 72.7149C35.3894 72.3238 35.5447 71.9487 35.8213 71.6722C36.0978 71.3957 36.4728 71.2403 36.8639 71.2403H40.0755C39.691 70.2795 39.3703 69.2943 39.1156 68.2912H4.42367C3.25044 68.2912 2.12526 68.7573 1.29566 69.5869C0.466064 70.4165 0 71.5416 0 72.7149C0 73.8881 0.466064 75.0133 1.29566 75.8429C2.12526 76.6725 3.25044 77.1385 4.42367 77.1385ZM10.3219 71.2403H30.9657C31.3568 71.2403 31.7318 71.3957 32.0084 71.6722C32.2849 71.9487 32.4403 72.3238 32.4403 72.7149C32.4403 73.1059 32.2849 73.481 32.0084 73.7575C31.7318 74.0341 31.3568 74.1894 30.9657 74.1894H10.3219C9.93082 74.1894 9.55576 74.0341 9.27923 73.7575C9.0027 73.481 8.84734 73.1059 8.84734 72.7149C8.84734 72.3238 9.0027 71.9487 9.27923 71.6722C9.55576 71.3957 9.93082 71.2403 10.3219 71.2403Z" fill="black" fill-opacity="0.2"/>
</svg>
