<svg width="36" height="36" viewBox="0 0 36 36" fill="none" xmlns="http://www.w3.org/2000/svg">
<rect x="1.27274" y="1.27274" width="33.4542" height="33.4542" rx="6.54538" stroke="#FF5C4D" stroke-width="1.45453"/>
<path d="M13.1928 26.7272H9.58273V15.0741H13.1928V26.7272ZM11.3858 13.4845C10.2317 13.4845 9.29517 12.526 9.29517 11.3689C9.29517 10.813 9.51543 10.2798 9.9075 9.88675C10.2996 9.49366 10.8313 9.27283 11.3858 9.27283C11.9403 9.27283 12.472 9.49366 12.8641 9.88675C13.2562 10.2798 13.4764 10.813 13.4764 11.3689C13.4764 12.526 12.5399 13.4845 11.3858 13.4845ZM26.7003 26.7272H23.098V21.0545C23.098 19.7026 23.0708 17.9688 21.2211 17.9688C19.3442 17.9688 19.0566 19.4376 19.0566 20.9571V26.7272H15.4505V15.0741H18.9129V16.6637H18.9634C19.4452 15.7481 20.6227 14.7819 22.3791 14.7819C26.0319 14.7819 26.7042 17.1935 26.7042 20.3259V26.7272H26.7003Z" fill="#FF5C4D"/>
</svg>
