<svg width="36" height="36" viewBox="0 0 36 36" fill="none" xmlns="http://www.w3.org/2000/svg">
<rect x="1.27274" y="1.27274" width="33.4542" height="33.4542" rx="6.54538" stroke="#FF5C4D" stroke-width="1.45453"/>
<path d="M9.4316 10C8.33999 10 7.45435 10.8958 7.45435 12C7.45435 12.6291 7.74681 13.2208 8.24525 13.6L17.2088 20.3999C17.6784 20.754 18.321 20.754 18.7906 20.3999L27.7541 13.6C28.2525 13.2208 28.545 12.6291 28.545 12C28.545 10.8958 27.6594 10 26.5678 10H9.4316ZM7.45435 14.6666V23.3332C7.45435 24.804 8.63658 25.9998 10.0907 25.9998H25.9087C27.3628 25.9998 28.545 24.804 28.545 23.3332V14.6666L19.5815 21.4665C18.6423 22.179 17.3571 22.179 16.4179 21.4665L7.45435 14.6666Z" fill="#FF5C4D"/>
</svg>
