<svg width="36" height="36" viewBox="0 0 36 36" fill="none" xmlns="http://www.w3.org/2000/svg">
<rect x="1.27274" y="1.27274" width="33.4545" height="33.4545" rx="6.54538" stroke="#FF5C4D" stroke-width="1.45453"/>
<path d="M26.0933 10.1117L22.5478 9.29353C22.1626 9.20489 21.7672 9.40603 21.6104 9.76739L19.974 13.5855C19.8308 13.9196 19.9263 14.3117 20.2092 14.5401L22.2751 16.2309C21.0479 18.8457 18.9036 21.0207 16.2343 22.2718L14.5434 20.2059C14.3116 19.923 13.9229 19.8275 13.5889 19.9707L9.77072 21.607C9.40595 21.7672 9.20482 22.1627 9.29345 22.5479L10.1116 26.0933C10.1969 26.4615 10.5241 26.7274 10.9093 26.7274C19.6399 26.7274 26.7273 19.6536 26.7273 10.9094C26.7273 10.5276 26.4648 10.1969 26.0933 10.1117Z" fill="#FF5C4D"/>
</svg>
