<svg width="60" height="60" viewBox="0 0 60 60" fill="none" xmlns="http://www.w3.org/2000/svg">
<path d="M58.9286 0H1.07143C0.787268 0 0.514746 0.112882 0.313814 0.313814C0.112882 0.514746 0 0.787268 0 1.07143V47.1429H60V1.07143C60 0.787268 59.8871 0.514746 59.6862 0.313814C59.4853 0.112882 59.2127 0 58.9286 0ZM57.8571 42.8571C57.8571 43.4255 57.6314 43.9705 57.2295 44.3724C56.8277 44.7742 56.2826 45 55.7143 45H4.28571C3.71739 45 3.17235 44.7742 2.77049 44.3724C2.36862 43.9705 2.14286 43.4255 2.14286 42.8571V4.28571C2.14286 3.71739 2.36862 3.17235 2.77049 2.77049C3.17235 2.36862 3.71739 2.14286 4.28571 2.14286H55.7143C56.2826 2.14286 56.8277 2.36862 57.2295 2.77049C57.6314 3.17235 57.8571 3.71739 57.8571 4.28571V42.8571Z" fill="#FAFCFF"/>
<path d="M0 50.357C0 50.6412 0.112882 50.9137 0.313814 51.1146C0.514746 51.3156 0.787268 51.4284 1.07143 51.4284H58.9286C59.2127 51.4284 59.4853 51.3156 59.6862 51.1146C59.8871 50.9137 60 50.6412 60 50.357V49.2856H0V50.357Z" fill="#FAFCFF"/>
<path d="M35.7182 53.5714H24.2818C23.8626 54.3951 23.2792 55.1244 22.5675 55.7142H37.4357C36.7229 55.1247 36.1384 54.3954 35.7182 53.5714Z" fill="#FAFCFF"/>
<path d="M51.4285 36.4285H11.7856C11.5015 36.4285 11.229 36.3156 11.028 36.1147C10.8271 35.9137 10.7142 35.6412 10.7142 35.3571V8.57135H8.57135V38.5713H51.4285V36.4285Z" fill="#FAFCFF"/>
<path d="M48.3546 27.2893C47.6507 22.0318 46.8525 16.0714 43.3329 16.0714C41.3668 16.0714 40.5407 18.1843 39.4136 21.6621C38.3111 25.0714 37.0596 28.9286 33.2143 28.9286C29.9861 28.9286 28.6939 26.2136 27.6557 24.0321C26.5714 21.75 25.815 20.3571 24.0311 20.3571C22.9929 20.3571 21.0589 20.3571 18.9418 28.1389C18.4199 30.4129 17.347 32.5238 15.8175 34.2857H49.7143C49.0358 32.003 48.5804 29.6599 48.3546 27.2893Z" fill="#FAFCFF"/>
<path d="M4.28571 42.857H55.7143V4.28558H4.28571V42.857ZM6.42856 8.5713C6.42856 8.00298 6.65433 7.45793 7.05619 7.05607C7.45806 6.65421 8.0031 6.42844 8.57142 6.42844H10.7143C11.2826 6.42844 11.8276 6.65421 12.2295 7.05607C12.6314 7.45793 12.8571 8.00298 12.8571 8.5713V33.9352C13.9778 33.3524 15.7275 31.7924 16.8739 27.5752C18.7071 20.8392 20.7139 18.2142 24.0311 18.2142C27.2582 18.2142 28.5503 20.9292 29.5896 23.1106C30.675 25.3927 31.4303 26.7856 33.2143 26.7856C35.3475 26.7856 36.2143 24.6009 37.3757 20.9999C38.4471 17.6838 39.6664 13.9284 43.3328 13.9284C48.7275 13.9284 49.6543 20.8745 50.4782 26.9999C50.8682 29.912 51.2764 32.8927 52.1164 34.4045C52.5397 34.548 52.9076 34.8202 53.1685 35.1832C53.4294 35.5461 53.5703 35.9815 53.5714 36.4284V38.5713C53.5714 39.1396 53.3457 39.6847 52.9438 40.0865C52.5419 40.4884 51.9969 40.7142 51.4286 40.7142H8.57142C8.0031 40.7142 7.45806 40.4884 7.05619 40.0865C6.65433 39.6847 6.42856 39.1396 6.42856 38.5713V8.5713Z" fill="#FAFCFF"/>
<path d="M16.0714 60H43.9286C43.9271 59.4321 43.7009 58.8879 43.2994 58.4863C42.8978 58.0848 42.3536 57.8585 41.7857 57.8571H18.2143C17.6459 57.8571 17.1009 58.0829 16.699 58.4847C16.2972 58.8866 16.0714 59.4317 16.0714 60Z" fill="#FAFCFF"/>
</svg>
